Simulation
nRows=16
nColumns=15
endheader
time  TH_x TH_y TH_z SC_y  SC_z  SC_x  AC_y  AC_z  AC_x  GH_y  GH_z  GH_yy  EL_x  PS_y
0.0  0.000000  0.000000  0.000000  -21.481837363305974  5.049547332879065  0.3347068766571287  50.70712932946251  7.390208522648888  -0.43576268234308024  152.0364223736373  1.7217811528476918  -108.34381890924934  20.87052297473652  120.000000
0.05362  0.000000  0.000000  0.000000  -21.146600040577745  5.251128450812787  -0.45865188662988526  50.50866174127109  7.522062765534832  0.11792205098648674  4.2525987862034675  0.7582226464278587  38.44539278399921  20.20163573974214  120.000000
0.10724  0.000000  0.000000  0.000000  -20.934614177884374  5.443096197875708  -1.1908891863468276  50.297545569784575  7.5651386581043365  0.6410645920238034  -11.313423304372316  3.0342322806991344  52.90392292226476  19.52762282179173  120.000000
0.16086  0.000000  0.000000  0.000000  -20.93954909329714  5.662908054397133  -1.8712933002578653  50.0687250253078  7.567606344321242  1.1137594130062818  -12.186951866366853  5.248758432293419  52.438188386131976  18.82155155632083  120.000000
0.21448  0.000000  0.000000  0.000000  -21.221985012696507  5.939544097303751  -2.4773952080567643  49.813918127266724  7.594959581074919  1.5375722736561288  -11.66401897008578  7.388781999454484  50.264772121109594  18.070521038349955  120.000000
0.2681  0.000000  0.000000  0.000000  -21.793877573394045  6.290254093378066  -2.9617624699902785  49.538165263264894  7.714661273478353  1.9218782303302797  -10.905830000856914  9.500987632250272  47.52261750657765  17.273275921020925  120.000000
0.32172  0.000000  0.000000  0.000000  -22.637414800655886  6.728323609902293  -3.2751715061945132  49.25657132267857  7.96895081612721  2.276399178705368  -10.271148605282928  11.640012497954725  44.5935539705462  16.442731070404736  120.000000
0.37534  0.000000  0.000000  0.000000  -23.71772197765853  7.25581730113773  -3.379548539862832  48.98287522311961  8.363293975812308  2.607291823094638  -9.94048834901434  13.857292503548  41.71232741910261  15.598175310018364  120.000000
0.42896  0.000000  0.000000  0.000000  -24.994151589611555  7.866058072205289  -3.2516671518102007  48.72529552288919  8.866188484548744  2.915935973056484  -9.986605261645199  16.193691123247355  39.02461885550546  14.763686369689278  120.000000
0.48258  0.000000  0.000000  0.000000  -26.417787114991697  8.542441467906002  -2.88482764268019  48.49143207203242  9.422677525106918  3.1997399318672772  -10.403377524101323  18.676693212994234  36.61030838411249  13.962638787653384  120.000000
0.5362  0.000000  0.000000  0.000000  -27.936501800301293  9.26279068547294  -2.289060314668976  48.289769866257835  9.970726573773023  3.4568950558635274  -11.111735655073613  21.318222905950837  34.47938233985948  13.21454584312277  120.000000
0.58982  0.000000  0.000000  0.000000  -29.495922615190867  10.001261641241182  -1.4918816700623638  48.13278080671386  10.456588226320193  3.687086290380817  -11.990755982845133  24.11406866083333  32.59406142605119  12.531610420990669  120.000000
0.64344  0.000000  0.000000  0.000000  -31.046810720965695  10.733801569427095  -0.5335095108686473  48.03405454505458  10.842777546177063  3.8928343585918  -12.902220737379706  27.044556786387297  30.881421394648825  11.919450972060735  120.000000
0.69706  0.000000  0.000000  0.000000  -32.548047722532374  11.439342316042595  0.540683676196743  48.0055198456831  11.11262554033076  4.0792551205886936  -13.720737092777066  30.07722348378281  29.25480658639548  11.374396844535703  120.000000
0.75068  0.000000  0.000000  0.000000  -33.97121330333021  12.103456806470117  1.688901216088253  48.05510276165303  11.269374298985133  4.252612586375417  -14.347361510033556  33.169819260342095  27.622422229738422  10.882012019334931  120.000000
0.8043  0.000000  0.000000  0.000000  -35.29931649795831  12.715578926937415  2.878742013023991  48.18441876301814  11.332692068389214  4.420114812295214  -14.72235315470111  36.276167687132755  25.904662548048087  10.416427191509214  120.000000
